<svg width="16" height="16" viewBox="0 0 16 16" fill="none" xmlns="http://www.w3.org/2000/svg">
<path fill-rule="evenodd" clip-rule="evenodd" d="M7.2 1.5996C7.2 1.15843 7.55817 0.800781 8 0.800781C8.44183 0.800781 8.8 1.15843 8.8 1.5996V8.46941L10.6343 6.6351C10.9467 6.32268 11.4533 6.32268 11.7657 6.6351C12.0781 6.94752 12.0781 7.45405 11.7657 7.76647L8.56569 10.9665C8.25327 11.2789 7.74673 11.2789 7.43431 10.9665L4.23431 7.76647C3.9219 7.45405 3.9219 6.94752 4.23431 6.6351C4.54673 6.32268 5.05327 6.32268 5.36569 6.6351L7.2 8.46941V1.5996ZM1.6 13.6008H14.4V8.80078C14.4 8.35895 14.7582 8.00078 15.2 8.00078C15.6418 8.00078 16 8.35895 16 8.80078V14.4008C16 14.8426 15.6418 15.2008 15.2 15.2008H0.8C0.358172 15.2008 0 14.8426 0 14.4008V8.80078C0 8.35895 0.358172 8.00078 0.8 8.00078C1.24183 8.00078 1.6 8.35895 1.6 8.80078V13.6008Z" fill="#199CFF"/>
</svg>
