<svg width="102" height="102" viewBox="0 0 102 102" fill="none" xmlns="http://www.w3.org/2000/svg">
<circle cx="51" cy="51" r="51" fill="#00B0F0"/>
<path d="M38.9995 50.2129V62.9996H51.7862L49.1195 60.3329H41.6662V52.8796L38.9995 50.2129Z" fill="white"/>
<path d="M73.4927 70.0539L69.666 66.1739V69.6673H32.3327V64.1339H34.9994V62.0006H32.3327V53.1339H34.9994V51.0006H32.3327V42.4673H34.9994V40.3339H32.3327V32.8806L53.586 54.0139V50.2539L31.946 28.7206C31.7595 28.5326 31.5213 28.4043 31.2616 28.3522C31.0019 28.3001 30.7327 28.3265 30.4881 28.4281C30.2435 28.5297 30.0347 28.7017 29.8883 28.9224C29.7419 29.1431 29.6645 29.4024 29.666 29.6673V71.0006C29.666 71.3542 29.8065 71.6934 30.0566 71.9434C30.3066 72.1935 30.6457 72.3339 30.9994 72.3339H72.546C72.8109 72.3355 73.0702 72.2581 73.2909 72.1117C73.5115 71.9653 73.6836 71.7565 73.7852 71.5119C73.8868 71.2673 73.9132 70.998 73.8611 70.7384C73.809 70.4787 73.6807 70.2404 73.4927 70.0539Z" fill="white"/>
<path d="M58.9997 67.0005H64.333C65.0402 67.0005 65.7185 66.7196 66.2186 66.2195C66.7187 65.7194 66.9997 65.0411 66.9997 64.3339V38.6005L63.933 32.9605C63.6958 32.5496 63.3533 32.2094 62.9408 31.9751C62.5283 31.7407 62.0607 31.6206 61.5863 31.6272C61.1012 31.6311 60.6263 31.7672 60.2128 32.0209C59.7993 32.2747 59.4628 32.6364 59.2397 33.0672L56.333 38.6272V64.3339C56.333 65.0411 56.614 65.7194 57.1141 66.2195C57.6142 66.7196 58.2924 67.0005 58.9997 67.0005ZM58.9997 39.2672L61.5863 34.2405L64.333 39.2805V59.0005H58.9997V39.2672ZM58.9997 61.1739H64.333V64.4272H58.9997V61.1739Z" fill="white"/>
</svg>
