<svg width="102" height="102" viewBox="0 0 102 102" fill="none" xmlns="http://www.w3.org/2000/svg">
<rect width="102" height="102" rx="51" fill="#89A8B7"/>
<path fill-rule="evenodd" clip-rule="evenodd" d="M80.7336 27.5479C80.5483 27.4004 80.2889 27.3635 80.0665 27.4373L68.356 30.7556C68.0224 30.8294 67.8001 31.1243 67.8001 31.4562V68.3267C67.8001 68.6217 67.9483 68.8798 68.2077 68.9904L79.9183 74.521C80.2889 74.7054 80.7336 74.5579 80.9189 74.1892C80.9559 74.0786 80.993 73.9679 80.993 73.8573V28.1378C81.03 27.9166 80.9189 27.6954 80.7336 27.5479ZM79.5477 72.6775L69.3195 67.8474V51.2557C69.5418 51.3294 69.7642 51.4031 69.9865 51.4031H70.4683C71.4689 51.4031 72.3212 50.592 72.2842 49.5596C72.2842 48.5641 71.4689 47.753 70.4683 47.753H69.9865C69.7642 47.753 69.5418 47.7898 69.3195 47.9004V32.0461L70.6536 31.6774V37.5767C70.6536 37.9823 70.9871 38.3141 71.3948 38.3141C71.8024 38.3141 72.1359 37.9823 72.1359 37.5767V31.3087V31.2349L73.6183 30.7925V39.0146C73.6183 39.4202 73.9518 39.752 74.3595 39.752C74.7671 39.752 75.1006 39.4202 75.1006 39.0146V30.3869L76.583 29.9813V40.5263C76.583 40.9319 76.9165 41.2637 77.3242 41.2637C77.7318 41.2637 78.0653 40.9319 78.0653 40.5263V29.5389L79.5106 29.1333L79.5477 72.6775ZM69.653 49.5596C69.653 49.3753 69.8013 49.2278 69.9865 49.2278H70.4683C70.6536 49.2278 70.8018 49.3753 70.8018 49.5965C70.8018 49.7808 70.6536 49.9283 70.4683 49.9283H69.9865C69.8013 49.9283 69.653 49.744 69.653 49.5596ZM33.6809 30.7483L21.964 27.429C21.5562 27.3184 21.1483 27.5397 21.0371 27.9085C21 27.9822 21 28.056 21 28.1298V73.8628C21 74.2685 21.3337 74.6004 21.7416 74.6004C21.8528 74.6004 21.964 74.5635 22.0753 74.5266L33.7921 68.9944C34.0517 68.8838 34.2 68.6256 34.2 68.3306V31.4491C34.2 31.1172 33.9775 30.859 33.6809 30.7483ZM32.6798 32.0023V47.8494C32.4697 47.7836 32.2595 47.7507 32.0494 47.7507H31.5674C30.5663 47.7507 29.7135 48.5621 29.7506 49.5948C29.7506 50.5906 30.5663 51.402 31.5674 51.402H32.0494C32.2719 51.402 32.4944 51.3651 32.7169 51.2913V67.888L22.4831 72.6826V29.1256L23.9292 29.5313V40.485C23.9292 40.8907 24.2629 41.2227 24.6708 41.2227C25.0787 41.2227 25.4124 40.8907 25.4124 40.485V29.9369L26.8955 30.3795V39.0098C26.8955 39.4155 27.2292 39.7474 27.6371 39.7474C28.0449 39.7474 28.3786 39.4155 28.3786 39.0098V30.7852L29.8618 31.2278V31.3016V37.5345C29.8618 37.9402 30.1955 38.2722 30.6034 38.2722C31.0112 38.2722 31.3449 37.9402 31.3449 37.5345V31.6335L32.6798 32.0023ZM32.3831 49.5579C32.3831 49.7423 32.2348 49.8898 32.0494 49.8898H31.5674C31.382 49.8898 31.2337 49.7423 31.2337 49.521C31.2337 49.3366 31.382 49.1891 31.5674 49.1891H32.0494C32.2348 49.226 32.3831 49.3735 32.3831 49.5579ZM60.4195 47.3465H55.2455L52.4893 41.9146C54.0909 40.7691 54.4633 38.5151 53.3087 36.8892C52.1541 35.2633 49.8821 34.9308 48.2433 36.0763C46.6045 37.2218 46.2693 39.4758 47.4239 41.1017C47.7219 41.5082 48.0944 41.8407 48.5041 42.0994L46.4928 47.3465H41.6168C39.9407 47.3465 38.5999 48.6768 38.5999 50.3396V56.8062C38.5999 58.469 39.9407 59.7993 41.6168 59.7993H60.3822C62.0583 59.7993 63.3991 58.469 63.3991 56.8062V50.3396C63.4364 48.6768 62.0955 47.3465 60.4195 47.3465ZM48.2433 39.0324C48.2433 37.8869 49.1745 36.9261 50.3663 36.9261C51.5582 36.9261 52.4893 37.8499 52.4893 39.0324C52.4893 40.2149 51.5582 41.1386 50.3663 41.1386C49.2117 41.1386 48.2433 40.1779 48.2433 39.0324ZM49.9566 42.5798C50.3663 42.6167 50.7388 42.6167 51.1485 42.5428L53.5694 47.3465H48.0944L49.9566 42.5798ZM61.9466 56.8062C61.9466 57.6561 61.2761 58.3212 60.4195 58.3212H41.6168C40.7601 58.3212 40.0897 57.6561 40.0897 56.8062V50.3396C40.0897 49.4897 40.7601 48.8246 41.6168 48.8246H60.3822C61.2389 48.8246 61.9093 49.4897 61.9093 50.3396L61.9466 56.8062ZM51.9228 51.4634C51.9228 51.6954 51.8804 51.8989 51.7955 52.0737C51.7106 52.2485 51.5889 52.3834 51.4303 52.4784C51.2728 52.5733 51.0919 52.6208 50.8875 52.6208C50.6853 52.6208 50.5049 52.5739 50.3463 52.48C50.1877 52.3861 50.0648 52.2523 49.9777 52.0785C49.8906 51.9037 49.8465 51.703 49.8454 51.4764V51.3598C49.8454 51.1278 49.8884 50.9238 49.9744 50.7479C50.0615 50.5709 50.1838 50.4355 50.3413 50.3416C50.4999 50.2466 50.6808 50.1991 50.8841 50.1991C51.0874 50.1991 51.2678 50.2466 51.4253 50.3416C51.5839 50.4355 51.7062 50.5709 51.7922 50.7479C51.8793 50.9238 51.9228 51.1272 51.9228 51.3582V51.4634ZM51.4135 51.3566C51.4135 51.1094 51.3677 50.9216 51.2761 50.7932C51.1846 50.6648 51.0539 50.6006 50.8841 50.6006C50.7154 50.6006 50.5853 50.6643 50.4937 50.7916C50.4021 50.9179 50.3558 51.1035 50.3547 51.3485V51.4634C50.3547 51.7041 50.4005 51.8908 50.4921 52.0235C50.5836 52.1562 50.7154 52.2226 50.8875 52.2226C51.0561 52.2226 51.1857 52.1589 51.2761 52.0316C51.3666 51.9032 51.4124 51.7165 51.4135 51.4715V51.3566ZM48.78 50.2315H49.2826V51.8632C49.2826 52.0132 49.248 52.146 49.1788 52.2615C49.1106 52.3759 49.014 52.4643 48.8889 52.5269C48.7638 52.5895 48.6225 52.6208 48.465 52.6208C48.207 52.6208 48.006 52.5577 47.8619 52.4314C47.7178 52.3041 47.6458 52.1244 47.6458 51.8924H48.1517C48.1517 52.0078 48.1769 52.0931 48.2271 52.1481C48.2774 52.2032 48.3567 52.2307 48.465 52.2307C48.5611 52.2307 48.6376 52.1989 48.6946 52.1352C48.7515 52.0715 48.78 51.9809 48.78 51.8632V50.2315ZM52.4939 50.2315V52.5884H53.4422C53.7192 52.5863 53.9325 52.5269 54.0822 52.4104C54.2319 52.2938 54.3067 52.1222 54.3067 51.8956C54.3067 51.7629 54.2704 51.6506 54.1978 51.5589C54.1263 51.4672 54.028 51.4062 53.9029 51.376C54.0124 51.335 54.0979 51.2708 54.1593 51.1834C54.2207 51.0949 54.2514 50.9929 54.2514 50.8774C54.2514 50.6659 54.1749 50.5056 54.0219 50.3966C53.8689 50.2865 53.6444 50.2315 53.3484 50.2315H52.4939ZM52.9966 52.1983V51.5621H53.4573C53.6885 51.5654 53.8041 51.6749 53.8041 51.8908C53.8041 51.9868 53.7706 52.0623 53.7036 52.1174C53.6377 52.1713 53.5455 52.1983 53.4271 52.1983H52.9966ZM53.3685 51.219H52.9966V50.6249H53.3484C53.4869 50.6249 53.588 50.6486 53.6516 50.6961C53.7164 50.7425 53.7488 50.8191 53.7488 50.926C53.7488 51.117 53.622 51.2146 53.3685 51.219ZM45.2772 55.4417C45.2772 55.6737 45.2347 55.8772 45.1499 56.052C45.065 56.2268 44.9432 56.3617 44.7846 56.4567C44.6271 56.5516 44.4462 56.5991 44.2418 56.5991C44.0396 56.5991 43.8593 56.5522 43.7006 56.4583C43.542 56.3644 43.4192 56.2306 43.3321 56.0568C43.2449 55.882 43.2008 55.6813 43.1997 55.4547V55.3381C43.1997 55.1061 43.2427 54.9021 43.3287 54.7262C43.4158 54.5492 43.5381 54.4138 43.6956 54.3199C43.8542 54.2249 44.0352 54.1774 44.2384 54.1774C44.4417 54.1774 44.6221 54.2249 44.7796 54.3199C44.9382 54.4138 45.0605 54.5492 45.1465 54.7262C45.2336 54.9021 45.2772 55.1055 45.2772 55.3365V55.4417ZM44.7679 55.3349C44.7679 55.0877 44.7221 54.9 44.6305 54.7715C44.5389 54.6431 44.4082 54.5789 44.2384 54.5789C44.0698 54.5789 43.9397 54.6426 43.8481 54.7699C43.7565 54.8962 43.7101 55.0818 43.709 55.3268V55.4417C43.709 55.6824 43.7548 55.8691 43.8464 56.0018C43.938 56.1345 44.0698 56.2009 44.2418 56.2009C44.4105 56.2009 44.54 56.1372 44.6305 56.0099C44.721 55.8815 44.7668 55.6948 44.7679 55.4498V55.3349ZM46.3509 56.5668V55.7363H46.7915C47.0808 55.7363 47.307 55.67 47.4701 55.5372C47.6343 55.4034 47.7163 55.221 47.7163 54.9901C47.7163 54.8379 47.6789 54.7025 47.6041 54.5838C47.5293 54.464 47.422 54.3717 47.2824 54.3069C47.1439 54.2422 46.9831 54.2098 46.7999 54.2098H45.8483V56.5668H46.3509ZM46.7999 55.343H46.3509V54.6032H46.8116C46.9356 54.6053 47.0328 54.642 47.1032 54.7133C47.1735 54.7845 47.2087 54.8778 47.2087 54.9933C47.2087 55.1055 47.1735 55.1919 47.1032 55.2523C47.0339 55.3127 46.9328 55.343 46.7999 55.343ZM49.7367 55.5453H48.7716V56.1766H49.9042V56.5668H48.269V54.2098H49.9009V54.6032H48.7716V55.1649H49.7367V55.5453ZM51.886 56.5668H52.3886V54.2098H51.8877V55.7638L50.9076 54.2098H50.4049V56.5668H50.9076V55.016L51.886 56.5668ZM53.5679 56.5668H53.0653V54.2098H53.5679V56.5668ZM55.7222 56.5668H56.2248V54.2098H55.7239V55.7638L54.7438 54.2098H54.2412V56.5668H54.7438V55.016L55.7222 56.5668ZM58.7997 56.2689C58.7092 56.3736 58.5813 56.4551 58.416 56.5133C58.2507 56.5705 58.0676 56.5991 57.8665 56.5991C57.6554 56.5991 57.47 56.5549 57.3103 56.4664C57.1517 56.3768 57.0288 56.2473 56.9417 56.0779C56.8557 55.9085 56.8116 55.7093 56.8093 55.4806V55.3203C56.8093 55.085 56.8501 54.8816 56.9316 54.71C57.0143 54.5373 57.1327 54.4057 57.2868 54.315C57.4421 54.2233 57.6236 54.1774 57.8313 54.1774C58.1206 54.1774 58.3468 54.2444 58.5099 54.3782C58.6729 54.5109 58.7695 54.7046 58.7997 54.9593H58.3105C58.2882 54.8244 58.2384 54.7257 58.1614 54.6631C58.0854 54.6005 57.9804 54.5692 57.8464 54.5692C57.6755 54.5692 57.5454 54.6312 57.456 54.7553C57.3667 54.8795 57.3215 55.064 57.3203 55.309V55.4595C57.3203 55.7066 57.3689 55.8933 57.4661 56.0196C57.5633 56.1459 57.7057 56.209 57.8933 56.209C58.0821 56.209 58.2167 56.1702 58.2971 56.0925V55.6861H57.8397V55.3284H58.7997V56.2689Z" fill="white"/>
</svg>
