<svg width="102" height="102" viewBox="0 0 102 102" fill="none" xmlns="http://www.w3.org/2000/svg">
<circle cx="51" cy="51" r="51" fill="#A1DF56"/>
<path fill-rule="evenodd" clip-rule="evenodd" d="M63.2614 38.0513C63.3203 38.0178 63.3868 38.0001 63.4546 38.0001C63.5211 37.9992 63.5876 38.0051 63.6475 38.0385L67.469 40.1706C67.5898 40.2387 67.6904 40.3376 67.7605 40.4572C67.8306 40.5768 67.8676 40.7129 67.8677 40.8514V59.2951C67.868 59.4305 67.8324 59.5636 67.7646 59.6808C67.6968 59.7981 67.5992 59.8954 67.4817 59.9629L61.0614 63.662C60.9441 63.73 60.811 63.7657 60.6754 63.7657C60.5398 63.7657 60.4067 63.73 60.2894 63.662L53.8691 59.9629C53.6293 59.8246 53.4832 59.5715 53.4832 59.2951V51.8971C53.4832 51.6204 53.6292 51.3546 53.8691 51.2163L60.2894 47.5174C60.4067 47.4496 60.5399 47.4139 60.6754 47.4139C60.8109 47.4139 60.9441 47.4496 61.0614 47.5174L62.6697 48.442C62.7107 48.4659 62.7574 48.4785 62.8048 48.4785C62.8523 48.4785 62.8989 48.4659 62.9399 48.442C63.0236 48.3937 63.0685 48.3073 63.0685 48.2109V38.3853C63.0688 38.3177 63.0868 38.2513 63.1206 38.1928C63.1544 38.1342 63.203 38.0855 63.2614 38.0513ZM21.8064 47.3246C21.9162 47.261 22.0313 47.2396 22.1536 47.2348H22.2309C22.3541 47.2398 22.4696 47.261 22.5782 47.3246L28.9984 51.0237C29.1163 51.0908 29.2141 51.1881 29.282 51.3054C29.3498 51.4228 29.3851 51.556 29.3843 51.6915L29.3718 61.6199C29.3718 61.6875 29.3539 61.754 29.32 61.8126C29.2861 61.8713 29.2374 61.92 29.1787 61.9539C29.1204 61.9888 29.0537 62.0073 28.9857 62.0073C28.9176 62.0073 28.8509 61.9888 28.7926 61.9539L24.9842 59.7703C24.7446 59.6289 24.5854 59.3783 24.5854 59.1023V54.4659C24.5859 54.3304 24.5505 54.1973 24.4826 54.0799C24.4148 53.9626 24.3171 53.8653 24.1994 53.7979L22.5782 52.8604C22.4605 52.7906 22.3246 52.7575 22.1923 52.7575C22.0567 52.7568 21.9234 52.7923 21.8062 52.8604L20.1852 53.7979C19.9448 53.9354 19.7991 54.1892 19.7991 54.4659V59.1025C19.7991 59.3785 19.6415 59.6273 19.4003 59.7705L15.5919 61.9539C15.5336 61.9888 15.4669 62.0073 15.3989 62.0073C15.3309 62.0073 15.2641 61.9888 15.2058 61.9539C15.0842 61.8864 15.0129 61.758 15.0129 61.62L15 51.6915C14.9996 51.5561 15.0351 51.423 15.1029 51.3057C15.1706 51.1884 15.2683 51.0911 15.3859 51.0237L21.8064 47.3246ZM79.4603 47.4274C79.5806 47.3585 79.7121 47.3246 79.8462 47.3246V47.3248C79.9817 47.3242 80.115 47.3597 80.2323 47.4274L86.6139 51.1265C86.8534 51.265 87 51.5187 87 51.7945V53.5796C87 53.7149 86.9643 53.8479 86.8965 53.9651C86.8287 54.0824 86.7313 54.1798 86.6139 54.2476L82.7667 56.482C82.6467 56.5516 82.5012 56.5514 82.3808 56.482C82.322 56.4483 82.2732 56.3996 82.2393 56.341C82.2055 56.2824 82.1877 56.2159 82.1879 56.1482V54.3243C82.188 54.2566 82.1702 54.1901 82.1363 54.1315C82.1024 54.0729 82.0536 54.0242 81.9948 53.9905L79.9878 52.8345C79.9292 52.8006 79.8626 52.7827 79.7948 52.7827C79.727 52.7827 79.6604 52.8006 79.6017 52.8345L77.5946 53.9905C77.4746 54.0594 77.3888 54.1862 77.3888 54.3245V56.6362C77.3888 56.7747 77.4738 56.9142 77.5946 56.9831L84.0535 60.6822C84.1127 60.7155 84.1617 60.7641 84.1957 60.8229C84.2296 60.8816 84.2471 60.9483 84.2465 61.0161C84.246 61.1554 84.1632 61.2821 84.0407 61.35L80.1808 63.4948C79.944 63.6263 79.6568 63.6162 79.4217 63.4823L73.0527 59.8603C72.8109 59.7227 72.6539 59.4706 72.6539 59.1923V51.7943C72.6537 51.6589 72.6892 51.5258 72.757 51.4086C72.8248 51.2913 72.9224 51.194 73.04 51.1265L79.4603 47.4274ZM60.7526 52.873C60.7226 52.8558 60.6833 52.8475 60.6497 52.8475V52.8477C60.6179 52.8476 60.5867 52.8564 60.5596 52.8732L58.3596 54.1446C58.2998 54.1794 58.2565 54.2426 58.2565 54.3115V56.8545C58.2565 56.9236 58.2996 56.987 58.3596 57.0216L60.5596 58.2931C60.589 58.3099 60.6222 58.3187 60.6561 58.3187C60.6899 58.3187 60.7232 58.3099 60.7526 58.2931L62.9528 57.0216C63.0129 56.9872 63.0558 56.9236 63.0558 56.8545V54.3115C63.0558 54.2427 63.0125 54.179 62.9528 54.1446L60.7526 52.873ZM41.0544 47.3888C41.1742 47.3199 41.3065 47.2859 41.4403 47.2859C41.5758 47.2856 41.709 47.3211 41.8264 47.3888L48.2467 51.075C48.4866 51.213 48.6326 51.479 48.6326 51.7557V59.1537C48.6328 59.2891 48.5973 59.4221 48.5295 59.5394C48.4618 59.6567 48.3642 59.7541 48.2467 59.8217L41.8264 63.5206C41.7091 63.5886 41.576 63.6244 41.4404 63.6244C41.3048 63.6244 41.1716 63.5886 41.0544 63.5206L34.6341 59.8217C34.3941 59.6831 34.248 59.4304 34.248 59.1537V51.7557C34.248 51.4793 34.394 51.213 34.6341 51.075L41.0544 47.3888ZM79.7563 53.9006C79.7794 53.8878 79.8078 53.8878 79.8334 53.8878V53.888L79.838 53.888C79.8611 53.8879 79.8763 53.8879 79.8978 53.9005L81.1329 54.6199C81.1559 54.6327 81.175 54.6513 81.1886 54.6738C81.2021 54.6963 81.2096 54.722 81.2102 54.7482V56.1611C81.2096 56.1874 81.2021 56.213 81.1886 56.2355C81.175 56.258 81.1559 56.2766 81.1329 56.2895L79.8978 56.996C79.852 57.0228 79.8027 57.0228 79.7563 56.996L78.5212 56.2896C78.4747 56.2631 78.444 56.2143 78.444 56.1611V54.7484C78.4444 54.7221 78.4518 54.6964 78.4653 54.6738C78.4789 54.6512 78.4982 54.6326 78.5212 54.6199L79.7563 53.9006Z" fill="white"/>
</svg>
